<svg xmlns="http://www.w3.org/2000/svg" viewBox="0 0 100 125" x="0px" y="0px"><g data-name="Layer 2"><path d="M15.624,82.945c.238-.011,23.827-1.057,32.844,2.621.013.006.027.007.04.012a1.382,1.382,0,0,0,.02.2,1.5,1.5,0,0,0,.08.273c.008.021.022.039.031.06a1.489,1.489,0,0,0,.1.19c.019.03.044.056.065.085a1.512,1.512,0,0,0,.112.139c.024.025.053.047.079.071a1.664,1.664,0,0,0,.144.12c.008,0,.014.013.022.018s.026.011.038.018a1.442,1.442,0,0,0,.336.16c.016.006.032.014.049.019a1.562,1.562,0,0,0,.309.057L50,87h.007a1.5,1.5,0,0,0,.464-.085c.039-.013.075-.026.113-.042a1.488,1.488,0,0,0,.375-.223c.008-.007.018-.011.026-.018a1.492,1.492,0,0,0,.26-.292c.21-.31.431-.609.655-.9,9.265-3.511,32.243-2.5,32.478-2.485a1.5,1.5,0,0,0,1.569-1.5V25.9a1.5,1.5,0,0,0-3,0v53.99C78.411,79.743,65.234,79.51,56,81.25c9.126-7.332,22.538-8.37,22.7-8.381a1.5,1.5,0,0,0,1.4-1.5V16.257a1.5,1.5,0,0,0-3,0V70.015c-4.013.478-15.65,2.442-23.865,9.626C58.05,68.4,70.052,61.951,70.193,61.876a1.5,1.5,0,0,0,.8-1.327V7.5a1.5,1.5,0,0,0-1.642-1.493c-12.6,1.2-18.387,15.755-20.178,21.446A16.6,16.6,0,0,0,39.58,24.4H15.555a1.5,1.5,0,0,0-1.5,1.5V81.447a1.5,1.5,0,0,0,1.569,1.5ZM51.5,30.223C51.976,28.4,56.608,11.779,68,9.252V59.669c-2.74,1.591-11.627,7.272-16.5,16.56ZM17.055,27.4H39.58a13.622,13.622,0,0,1,8.92,3.324V82.385c-8.756-2.96-26.108-2.668-31.445-2.5Z"/><path d="M91.337,32.784a1.5,1.5,0,0,0-1.5,1.5V85.833H58.85a4.783,4.783,0,0,0-4.081,2.311l-1.2,2A1.767,1.767,0,0,1,52.059,91H47.941a1.767,1.767,0,0,1-1.508-.854l-1.2-2a4.783,4.783,0,0,0-4.081-2.311H10.163V34.284a1.5,1.5,0,0,0-3,0V87.333a1.5,1.5,0,0,0,1.5,1.5H41.15a1.766,1.766,0,0,1,1.509.855l1.2,2A4.784,4.784,0,0,0,47.941,94h4.118a4.784,4.784,0,0,0,4.081-2.311l1.2-2a1.768,1.768,0,0,1,1.509-.854H91.337a1.5,1.5,0,0,0,1.5-1.5V34.284A1.5,1.5,0,0,0,91.337,32.784Z"/></g><text x="0" y="115" fill="#000000" font-size="5px" font-weight="bold" font-family="'Helvetica Neue', Helvetica, Arial-Unicode, Arial, Sans-serif">Created by Wahid Ilham M. Rifai</text><text x="0" y="120" fill="#000000" font-size="5px" font-weight="bold" font-family="'Helvetica Neue', Helvetica, Arial-Unicode, Arial, Sans-serif">from the Noun Project</text></svg>